<svg width="36" height="36" viewBox="0 0 36 36" fill="none" xmlns="http://www.w3.org/2000/svg">
<path fill-rule="evenodd" clip-rule="evenodd" d="M18 36C27.9411 36 36 27.9411 36 18C36 8.05887 27.9411 0 18 0C8.05887 0 0 8.05887 0 18C0 27.9411 8.05887 36 18 36ZM14.4629 8.51069C15.8242 8.00395 17.2786 7.79625 18.7273 7.9017C24.0844 8.26627 28.125 12.9449 28.125 18.3222V19.426C28.125 20.8843 27.2946 22.2717 25.9376 22.8084C24.2869 23.4667 22.4844 22.8185 21.5831 21.5831C20.4185 22.7679 18.6463 23.3654 16.7829 22.9299C15.8378 22.6977 14.9796 22.1977 14.3114 21.49C13.6432 20.7823 13.1934 19.8969 13.0158 18.94C12.8679 18.1458 12.9119 17.3277 13.1442 16.554C13.3764 15.7803 13.7901 15.0732 14.3508 14.4917C14.9115 13.9101 15.6031 13.471 16.3679 13.2107C17.1326 12.9505 17.9485 12.8767 18.7475 12.9955C21.259 13.3499 23.0616 15.6386 23.0616 18.1804V19.4463C23.0616 20.2463 23.7806 21.0362 24.5806 21.0362C25.3806 21.0362 26.0996 20.2463 26.0996 19.4463V18.3323C26.0996 14.555 23.6489 11.0917 19.983 10.16C14.1095 8.64096 8.64096 14.1196 10.1499 19.9931C11.0917 23.6489 14.555 26.0996 18.3323 26.0996H22.0489C22.6059 26.0996 23.0616 26.5553 23.0616 27.1123C23.0616 27.6693 22.6059 28.125 22.0489 28.125H18.3121C12.9449 28.125 8.26627 24.0844 7.9017 18.7273C7.79625 17.2786 8.00395 15.8242 8.51069 14.4629C9.01743 13.1017 9.81133 11.8655 10.8384 10.8384C11.8655 9.81133 13.1017 9.01743 14.4629 8.51069ZM14.9601 17.9982C14.9601 19.6792 16.3171 21.0362 17.9982 21.0362C19.6792 21.0362 21.0362 19.6792 21.0362 17.9982C21.0362 16.3171 19.6792 14.9601 17.9982 14.9601C16.3171 14.9601 14.9601 16.3171 14.9601 17.9982Z" fill="white"/>
</svg>
