<svg width="44" height="44" viewBox="0 0 44 44" fill="none" xmlns="http://www.w3.org/2000/svg">
<path d="M14.7169 35.4287C14.7169 35.6107 14.5129 35.7563 14.2556 35.7563C13.9629 35.7836 13.7589 35.638 13.7589 35.4287C13.7589 35.2468 13.9629 35.1012 14.2202 35.1012C14.4863 35.0739 14.7169 35.2195 14.7169 35.4287ZM11.9581 35.0193C11.896 35.2013 12.0734 35.4105 12.3395 35.4651C12.5702 35.5561 12.8363 35.4651 12.8895 35.2832C12.9427 35.1012 12.7742 34.8919 12.5081 34.8101C12.2774 34.7464 12.0202 34.8373 11.9581 35.0193ZM15.879 34.8646C15.6218 34.9283 15.4444 35.1012 15.471 35.3105C15.4976 35.4924 15.7282 35.6107 15.9944 35.547C16.2516 35.4833 16.429 35.3105 16.4024 35.1285C16.3758 34.9556 16.1363 34.8373 15.879 34.8646ZM21.7161 0C9.4121 0 0 9.5805 0 22.1998C0 32.2898 6.19194 40.9241 15.0363 43.9629C16.1718 44.1722 16.571 43.4534 16.571 42.862C16.571 42.2979 16.5444 39.1863 16.5444 37.2757C16.5444 37.2757 10.3347 38.6404 9.03065 34.5644C9.03065 34.5644 8.01935 31.9168 6.56452 31.2344C6.56452 31.2344 4.53306 29.806 6.70645 29.8333C6.70645 29.8333 8.91532 30.0153 10.1306 32.1806C12.0734 35.6926 15.329 34.6827 16.5976 34.0822C16.8016 32.6265 17.3782 31.6166 18.0169 31.0161C13.0581 30.452 8.05484 29.715 8.05484 20.9625C8.05484 18.4604 8.72903 17.2049 10.1484 15.6036C9.91774 15.0122 9.16371 12.5738 10.379 9.42583C12.2331 8.83444 16.5 11.8824 16.5 11.8824C18.2742 11.3729 20.1815 11.109 22.071 11.109C23.9605 11.109 25.8677 11.3729 27.6419 11.8824C27.6419 11.8824 31.9089 8.82534 33.7629 9.42583C34.9782 12.5829 34.2242 15.0122 33.9935 15.6036C35.4129 17.214 36.2823 18.4695 36.2823 20.9625C36.2823 29.7423 31.0573 30.4429 26.0984 31.0161C26.9145 31.7348 27.6065 33.0996 27.6065 35.2377C27.6065 38.3038 27.5798 42.0978 27.5798 42.8438C27.5798 43.4352 27.9879 44.154 29.1145 43.9447C37.9855 40.9241 44 32.2898 44 22.1998C44 9.5805 34.0202 0 21.7161 0ZM8.62258 31.38C8.50726 31.471 8.53387 31.6802 8.68468 31.8531C8.82661 31.9987 9.03064 32.0624 9.14597 31.9441C9.26129 31.8531 9.23468 31.6438 9.08387 31.471C8.94194 31.3254 8.7379 31.2617 8.62258 31.38ZM7.66452 30.643C7.60242 30.7613 7.69113 30.9069 7.86855 30.9979C8.01048 31.0889 8.1879 31.0616 8.25 30.9342C8.3121 30.8159 8.22339 30.6703 8.04597 30.5793C7.86855 30.5248 7.72661 30.5521 7.66452 30.643ZM10.5387 33.882C10.3968 34.0003 10.45 34.2733 10.654 34.4461C10.8581 34.6554 11.1153 34.6827 11.2306 34.5371C11.346 34.4188 11.2927 34.1459 11.1153 33.973C10.9202 33.7637 10.654 33.7365 10.5387 33.882ZM9.52742 32.5446C9.38548 32.6356 9.38548 32.8721 9.52742 33.0814C9.66935 33.2906 9.90887 33.3816 10.0242 33.2906C10.1661 33.1724 10.1661 32.9358 10.0242 32.7265C9.9 32.5173 9.66935 32.4263 9.52742 32.5446Z" fill="white"/>
</svg>
