<svg width="44" height="44" viewBox="0 0 44 44" fill="none" xmlns="http://www.w3.org/2000/svg">
<path fill-rule="evenodd" clip-rule="evenodd" d="M44 22C44 34.1495 34.1495 44 22 44C9.8505 44 0 34.1495 0 22C0 9.8505 9.8505 0 22 0C34.1495 0 44 9.8505 44 22ZM22.7883 16.2415C20.6488 17.1307 16.3717 18.9732 9.95867 21.7672C8.91733 22.1815 8.371 22.5867 8.3215 22.9827C8.23717 23.6537 9.07683 23.9177 10.2172 24.2752C10.373 24.3247 10.5343 24.3742 10.6993 24.4292C11.8232 24.794 13.3338 25.2212 14.1185 25.2377C14.8317 25.2523 15.6273 24.959 16.5055 24.3577C22.4968 20.3115 25.5897 18.2673 25.784 18.2233C25.9215 18.1922 26.1122 18.1518 26.2405 18.2673C26.3688 18.381 26.356 18.5973 26.3432 18.656C26.2588 19.0098 22.9698 22.0697 21.2648 23.6537C20.7332 24.1468 20.3573 24.497 20.2803 24.5777C20.108 24.7555 19.932 24.926 19.7633 25.0892C18.7183 26.0938 17.9373 26.8492 19.8073 28.0812C20.7057 28.6733 21.4243 29.1628 22.1412 29.6505C22.924 30.184 23.705 30.7157 24.717 31.3793C24.9737 31.548 25.2193 31.7222 25.4595 31.8927C26.3707 32.5435 27.1902 33.1265 28.2022 33.0348C28.7888 32.9798 29.3975 32.428 29.7055 30.7798C30.4333 26.8822 31.867 18.4415 32.1988 14.9618C32.219 14.6729 32.2067 14.3827 32.1622 14.0965C32.1355 13.8654 32.0229 13.6527 31.8468 13.5007C31.5847 13.2862 31.1777 13.2403 30.9943 13.244C30.1675 13.2587 28.8988 13.7005 22.7883 16.2415Z" fill="white"/>
</svg>
