<svg width="67" height="67" viewBox="0 0 67 67" fill="none" xmlns="http://www.w3.org/2000/svg">
<path d="M67 33.5C67 24.6152 63.4705 16.0944 57.1881 9.81192C50.9056 3.52945 42.3848 0 33.5 0C24.6152 0 16.0944 3.52945 9.81192 9.81192C3.52945 16.0944 0 24.6152 0 33.5C0 42.3848 3.52945 50.9056 9.81192 57.1881C16.0944 63.4705 24.6152 67 33.5 67C42.3848 67 50.9056 63.4705 57.1881 57.1881C63.4705 50.9056 67 42.3848 67 33.5ZM35.5938 48.1562C35.5938 48.7115 35.3732 49.2441 34.9805 49.6368C34.5879 50.0294 34.0553 50.25 33.5 50.25C32.9447 50.25 32.4121 50.0294 32.0195 49.6368C31.6268 49.2441 31.4062 48.7115 31.4062 48.1562V23.8981L22.4199 32.8886C22.0267 33.2818 21.4935 33.5026 20.9375 33.5026C20.3815 33.5026 19.8483 33.2818 19.4551 32.8886C19.062 32.4955 18.8411 31.9622 18.8411 31.4062C18.8411 30.8503 19.062 30.317 19.4551 29.9239L32.0176 17.3614C32.2121 17.1664 32.4432 17.0117 32.6975 16.9061C32.9519 16.8006 33.2246 16.7463 33.5 16.7463C33.7754 16.7463 34.0481 16.8006 34.3025 16.9061C34.5568 17.0117 34.7879 17.1664 34.9824 17.3614L47.5449 29.9239C47.938 30.317 48.1589 30.8503 48.1589 31.4062C48.1589 31.9622 47.938 32.4955 47.5449 32.8886C47.1517 33.2818 46.6185 33.5026 46.0625 33.5026C45.5065 33.5026 44.9733 33.2818 44.5801 32.8886L35.5938 23.8981V48.1562Z" fill="white"/>
</svg>
