<svg width="67" height="67" viewBox="0 0 67 67" fill="none" xmlns="http://www.w3.org/2000/svg">
<path fill-rule="evenodd" clip-rule="evenodd" d="M33.5 67C52.0015 67 67 52.0015 67 33.5C67 14.9985 52.0015 0 33.5 0C14.9985 0 0 14.9985 0 33.5C0 52.0015 14.9985 67 33.5 67ZM40.3951 20.5192C39.8299 20.762 39.3187 21.115 38.8913 21.5575L35.4165 25.0322C35.2029 25.2534 34.9472 25.4299 34.6646 25.5513C34.382 25.6727 34.078 25.7366 33.7705 25.7393C33.4629 25.742 33.1578 25.6834 32.8731 25.5669C32.5885 25.4504 32.3298 25.2784 32.1123 25.0609C31.8948 24.8434 31.7228 24.5848 31.6063 24.3001C31.4899 24.0154 31.4312 23.7104 31.4339 23.4028C31.4366 23.0952 31.5005 22.7912 31.6219 22.5086C31.7433 22.226 31.9198 21.9704 32.141 21.7567L35.6158 18.2819C37.3633 16.5941 39.7039 15.6601 42.1334 15.6812C44.563 15.7023 46.887 16.6768 48.605 18.3948C50.3229 20.1128 51.2974 22.4368 51.3185 24.8663C51.3397 27.2958 50.4057 29.6364 48.7178 31.384L41.7684 38.3335C40.0307 40.0706 37.6743 41.0464 35.2173 41.0464C32.7603 41.0464 30.4039 40.0706 28.6663 38.3335C28.2443 37.8966 28.0108 37.3114 28.0161 36.7041C28.0214 36.0967 28.265 35.5157 28.6945 35.0862C29.124 34.6567 29.705 34.4131 30.3124 34.4078C30.9198 34.4025 31.5049 34.636 31.9418 35.058C32.8106 35.9265 33.9888 36.4144 35.2173 36.4144C36.4458 36.4144 37.624 35.9265 38.4928 35.058L45.4423 28.1085C45.8848 27.6811 46.2378 27.1699 46.4806 26.6047C46.7234 26.0394 46.8512 25.4315 46.8565 24.8163C46.8619 24.2011 46.7447 23.5911 46.5117 23.0217C46.2788 22.4523 45.9347 21.935 45.4997 21.5C45.0647 21.065 44.5475 20.721 43.9781 20.4881C43.4087 20.2551 42.7986 20.1379 42.1835 20.1432C41.5683 20.1486 40.9604 20.2764 40.3951 20.5192ZM30.5844 31.7834C29.3559 31.7834 28.1776 32.2714 27.3088 33.1399L20.3594 40.0894C19.9169 40.5168 19.5639 41.028 19.3211 41.5932C19.0783 42.1585 18.9505 42.7664 18.9451 43.3816C18.9398 43.9967 19.057 44.6068 19.29 45.1762C19.5229 45.7456 19.8669 46.2628 20.3019 46.6978C20.7369 47.1328 21.2542 47.4769 21.8236 47.7098C22.393 47.9428 23.003 48.06 23.6182 48.0546C24.2334 48.0493 24.8413 47.9215 25.4066 47.6787C25.9718 47.4359 26.483 47.0829 26.9104 46.6404L30.3851 43.1657C30.5988 42.9444 30.8544 42.768 31.1371 42.6465C31.4197 42.5251 31.7236 42.4612 32.0312 42.4586C32.3388 42.4559 32.6438 42.5145 32.9285 42.631C33.2132 42.7475 33.4719 42.9195 33.6894 43.137C33.9069 43.3545 34.0789 43.6131 34.1953 43.8978C34.3118 44.1825 34.3704 44.4875 34.3678 44.7951C34.3651 45.1027 34.3012 45.4067 34.1798 45.6893C34.0584 45.9719 33.8819 46.2275 33.6606 46.4412L30.1859 49.9159C29.3312 50.8009 28.3087 51.5068 27.1782 51.9924C26.0477 52.4781 24.8319 52.7337 23.6015 52.7444C22.3712 52.7551 21.1511 52.5206 20.0123 52.0547C18.8736 51.5888 17.839 50.9008 16.969 50.0308C16.099 49.1608 15.411 48.1262 14.9451 46.9875C14.4792 45.8487 14.2447 44.6286 14.2554 43.3982C14.2661 42.1679 14.5217 40.952 15.0073 39.8216C15.493 38.6911 16.1989 37.6686 17.0839 36.8139L24.0333 29.8644C25.7709 28.1273 28.1273 27.1514 30.5844 27.1514C33.0413 27.1514 35.3978 28.1273 37.1354 29.8644C37.3566 30.0781 37.5331 30.3337 37.6545 30.6163C37.7759 30.8989 37.8398 31.2029 37.8425 31.5105C37.8452 31.8181 37.7866 32.1231 37.6701 32.4078C37.5536 32.6925 37.3816 32.9511 37.1641 33.1686C36.9466 33.3861 36.688 33.5581 36.4033 33.6746C36.1186 33.7911 35.8135 33.8497 35.506 33.847C35.1984 33.8443 34.8944 33.7804 34.6118 33.659C34.3292 33.5376 34.0736 33.3612 33.8599 33.1399C32.9911 32.2714 31.8128 31.7834 30.5844 31.7834Z" fill="white"/>
</svg>
